<svg xmlns="http://www.w3.org/2000/svg" viewBox="0 0 498 498">
  <title>icon</title>
  <path d="M47.69,47.69C16.56,78.82,1,164.41,1,250S16.56,421.18,47.69,452.31,164.41,499,250,499s171.18-15.56,202.31-46.69S499,335.59,499,250,483.44,78.82,452.31,47.69,335.59,1,250,1,78.82,16.56,47.69,47.69Z" transform="translate(-1 -1)" fill="#e00022"/>
  <path d="M277,72H170V94.66c53,0,53,11.1076,53,22.2152V382.57c0,11.1076,0,22.2152-53,22.2152V427H330V404.7847c-53,0-53-11.1076-53-22.2152V116.8748c0-11.1076,0-22.2152,53-22.2152V72Z" transform="translate(-1 -1)" fill="#fffffd"/>
</svg>
